<svg xmlns="http://www.w3.org/2000/svg" width="256" height="256" viewBox="0 0 256 256">
  <rect width="256" height="256" rx="52" fill="#1E2D40"/>
  <path d="M42 88 Q80 72 118 80 Q156 88 194 72 L206 96 Q168 112 130 104 Q92 96 54 112 Z" fill="#FFFFFF"/>
  <path d="M48 124 Q86 108 124 116 Q162 124 200 108 L212 132 Q174 148 136 140 Q98 132 60 148 Z" fill="#2A9D8F"/>
  <path d="M54 160 Q92 144 130 152 Q168 160 206 144 L218 168 Q180 184 142 176 Q104 168 66 184 Z" fill="#2A9D8F" opacity="0.5"/>
</svg>
